# xmcd
#
# Track frame offsets:
#	187
#	24282
#	40655
#	53722
#	65202
#	80670
#	92805
#	106820
#	119195
#	130045
#
# Disc length: 1968 seconds
#
# Revision: 1
# Processed by: cddbd v1.4PL0 Copyright (c) Steve Scherf et al.
# Submitted via: EasyCDDAExtractor 5.0.7
#
DISCID=8407ae0a
DTITLE=Doug Sahm - Texas Rock for Country Rollers
DYEAR=1976
DGENRE=Country
TTITLE0=I Love The Way You Love (The Way I Love You)
TTITLE1=Cowboy Peyton Place
TTITLE2=Give Back The Key To My Heart
TTITLE3=Wolverton Mountain
TTITLE4=Texas Ranger Man
TTITLE5=Float Away
TTITLE6=I'm Missing You
TTITLE7=Gene Thomas Medley...Sometimes and Cryin' Inside
TTITLE8=Country Groove
TTITLE9=You Can't Hide A Redneck (Under That Hippy Hair)
EXTD=YEAR: 1976 ID3G: 2
EXTT0=
EXTT1=
EXTT2=
EXTT3=
EXTT4=
EXTT5=
EXTT6=
EXTT7=
EXTT8=
EXTT9=
PLAYORDER=
